# xmcd
#
# Track frame offsets:
#	150
#	19018
#	36855
#	54511
#	70708
#	87086
#	103323
#	127710
#	141393
#	158783
#	176612
#	193749
#
# Disc length: 2813 seconds
#
# Revision: 4
# Processed by: cddbd v1.5.1PL2 Copyright (c) Steve Scherf et al.
# Submitted via: EasyCDDAExtractor 9.0.0.1
#
DISCID=9e0afb0c
DTITLE=Natasha st pier - Longueur d'onde
DYEAR=1900
DGENRE=Unknown
TTITLE0=01 Un ange frappe à ma porte
TTITLE1=02 Longueur d'onde
TTITLE2=03 Ce silence
TTITLE3=04 J'oublie
TTITLE4=05 Tiens moi à la vie
TTITLE5=06 Je peux tout quitter
TTITLE6=07 A l'amour comme à la guerre
TTITLE7=08 Tant que j'existerai
TTITLE8=09 Comme dans un train
TTITLE9=10 Je traverserai
TTITLE10=11 Je fais comme si
TTITLE11=12 De nous
EXTD=
EXTT0=
EXTT1=
EXTT2=
EXTT3=
EXTT4=
EXTT5=
EXTT6=
EXTT7=
EXTT8=
EXTT9=
EXTT10=
EXTT11=
PLAYORDER=
